<?xml version="1.0" standalone="no"?>
<!DOCTYPE svg PUBLIC "-//W3C//DTD SVG 20010904//EN"
 "http://www.w3.org/TR/2001/REC-SVG-20010904/DTD/svg10.dtd">
<svg version="1.0" xmlns="http://www.w3.org/2000/svg"
 width="768.000000pt" height="311.000000pt" viewBox="0 0 768.000000 311.000000"
 preserveAspectRatio="xMidYMid meet">

<g transform="translate(0.000000,311.000000) scale(0.100000,-0.100000)"
fill="#000000" stroke="none">
<path d="M17 3043 c48 -212 162 -469 278 -625 l65 -88 336 0 336 0 -28 37
c-152 198 -262 430 -310 650 l-17 80 -96 7 c-53 3 -205 6 -338 6 l-241 0 15
-67z"/>
<path d="M1204 3100 l-331 -5 14 -70 c39 -192 150 -440 271 -601 l67 -89 348
-3 348 -2 -40 53 c-133 181 -252 441 -311 685 -6 23 -16 41 -23 40 -7 -2 -161
-5 -343 -8z"/>
<path d="M0 1830 l0 -310 604 0 604 0 73 76 c193 200 414 363 644 476 l140 68
-1033 0 -1032 0 0 -310z"/>
<path d="M2755 2129 c-479 -68 -936 -292 -1269 -624 -250 -247 -434 -538 -534
-840 -58 -176 -82 -309 -106 -592 l-6 -62 303 -3 c166 -2 303 -3 305 -2 1 0 7
39 13 85 56 458 228 795 537 1052 209 174 445 287 732 350 92 20 128 20 1038
24 l942 4 0 310 0 309 -947 -1 c-522 -1 -975 -5 -1008 -10z"/>
<path d="M4800 2125 c0 -15 15 -20 92 -29 62 -7 84 -22 103 -69 22 -54 23
-1179 1 -1232 -20 -47 -55 -66 -131 -73 -56 -4 -65 -7 -65 -25 0 -19 6 -19
468 -14 507 6 551 10 662 64 78 38 162 127 190 200 30 79 25 214 -10 288 -32
66 -107 140 -173 170 -105 48 -161 58 -374 62 l-203 5 0 290 0 290 213 -4 212
-3 60 -30 c74 -37 125 -101 156 -197 13 -40 27 -68 35 -68 11 0 14 36 14 195
l0 195 -625 0 c-545 0 -625 -2 -625 -15z m687 -745 c89 -12 140 -36 187 -91
53 -62 78 -138 79 -234 1 -101 -21 -169 -74 -228 -61 -70 -171 -97 -253 -63
-60 25 -66 58 -66 361 l0 265 28 0 c15 0 60 -5 99 -10z"/>
<path d="M6120 2126 c0 -17 22 -26 67 -26 19 0 50 -7 68 -16 58 -27 62 -49 68
-354 6 -291 13 -341 56 -396 61 -78 157 -108 320 -102 127 6 221 30 359 94
l73 33 -3 -282 c-3 -309 -4 -313 -64 -342 -18 -8 -55 -15 -83 -15 -44 0 -51
-3 -51 -20 0 -20 7 -20 375 -20 361 0 375 1 375 19 0 16 -9 19 -70 23 -59 3
-74 8 -96 30 -15 15 -30 44 -35 69 -11 57 -11 1131 0 1188 11 56 37 81 92 87
91 10 109 15 109 29 0 13 -50 15 -350 15 -302 0 -350 -2 -350 -15 0 -8 12 -17
28 -20 58 -12 76 -21 96 -48 20 -27 21 -42 24 -321 l3 -293 -50 -21 c-116 -50
-257 -67 -324 -38 -18 7 -43 26 -57 41 l-25 27 -3 277 c-2 168 1 288 7 304 13
32 52 59 99 66 24 4 38 12 40 24 3 16 -20 17 -347 17 -293 0 -351 -2 -351 -14z"/>
<path d="M0 1000 l0 -310 373 0 372 0 35 97 c58 161 143 327 254 496 l18 27
-526 0 -526 0 0 -310z"/>
<path d="M2745 1294 c-176 -31 -381 -113 -512 -205 -323 -229 -534 -602 -578
-1027 l-7 -62 313 2 314 3 8 65 c10 80 49 198 89 270 17 30 70 93 117 140 99
99 198 154 341 191 l85 22 893 -7 892 -6 0 308 0 309 -107 6 c-58 4 -480 7
-937 6 -665 -1 -847 -4 -911 -15z"/>
</g>
</svg>
