<?xml version="1.0" standalone="no"?>
<!DOCTYPE svg PUBLIC "-//W3C//DTD SVG 20010904//EN"
 "http://www.w3.org/TR/2001/REC-SVG-20010904/DTD/svg10.dtd">
<svg version="1.0" xmlns="http://www.w3.org/2000/svg"
 width="100.000000pt" height="100.000000pt" viewBox="0 0 100.000000 100.000000"
 preserveAspectRatio="xMidYMid meet">

<g transform="translate(0.000000,100.000000) scale(0.100000,-0.100000)"
fill="#000000" stroke="none">
<path d="M124 930 c-12 -4 -31 -21 -43 -36 -20 -26 -21 -36 -21 -296 0 -292 3
-313 55 -336 16 -7 77 -12 160 -12 l135 0 0 -30 c0 -27 -3 -30 -31 -30 -32 0
-69 -15 -81 -34 -14 -20 -8 -56 12 -76 18 -18 33 -20 190 -20 157 0 172 2 190
20 20 20 26 56 12 76 -12 19 -49 34 -81 34 -28 0 -31 3 -31 30 l0 30 135 0
c83 0 144 5 160 12 52 23 55 44 55 337 l0 271 -29 32 -29 33 -369 2 c-202 1
-378 -2 -389 -7z m754 -52 c9 -9 12 -74 12 -230 l0 -218 -390 0 -390 0 0 218
c0 156 3 221 12 230 17 17 739 17 756 0z m12 -526 c0 -15 -5 -33 -12 -40 -17
-17 -739 -17 -756 0 -7 7 -12 25 -12 40 l0 28 390 0 390 0 0 -28z m-350 -132
c0 -28 -2 -30 -40 -30 -38 0 -40 2 -40 30 0 28 2 30 40 30 38 0 40 -2 40 -30z
m120 -95 c0 -13 -24 -15 -160 -15 -136 0 -160 2 -160 15 0 13 24 15 160 15
136 0 160 -2 160 -15z"/>
<path d="M560 723 c-64 -175 -56 -171 -102 -59 -22 53 -46 96 -54 96 -7 0 -29
-27 -50 -60 -34 -56 -39 -60 -74 -60 -40 0 -57 -19 -37 -39 6 -6 30 -11 54
-11 41 0 45 3 73 46 l29 47 11 -28 c34 -89 73 -176 82 -182 17 -10 31 17 78
144 l44 118 14 -50 c24 -92 27 -95 76 -95 74 0 84 43 11 52 -27 3 -31 7 -43
63 -26 118 -32 135 -51 135 -14 0 -28 -27 -61 -117z"/>
</g>
</svg>
