<?xml version="1.0" standalone="no"?>
<!DOCTYPE svg PUBLIC "-//W3C//DTD SVG 20010904//EN"
 "http://www.w3.org/TR/2001/REC-SVG-20010904/DTD/svg10.dtd">
<svg version="1.0" xmlns="http://www.w3.org/2000/svg"
 width="512.000000pt" height="512.000000pt" viewBox="0 0 512.000000 512.000000"
 preserveAspectRatio="xMidYMid meet">

<g transform="translate(0.000000,512.000000) scale(0.100000,-0.100000)"
fill="#000000" stroke="none">
<path d="M2360 5105 c-292 -40 -551 -154 -786 -345 -274 -225 -486 -599 -530
-939 -6 -44 -14 -61 -46 -94 -70 -72 -71 -81 -76 -379 -2 -176 0 -285 8 -322
13 -65 55 -126 108 -160 33 -21 41 -33 57 -88 30 -108 109 -273 191 -395 91
-137 235 -288 363 -382 64 -46 88 -70 97 -96 18 -55 42 -84 92 -116 111 -70
235 -64 282 13 25 41 25 71 1 123 -41 91 -131 145 -239 145 -77 0 -92 8 -225
118 -169 140 -323 362 -401 579 l-26 73 38 19 c79 41 120 109 129 212 l6 70
23 -88 c74 -286 227 -568 418 -770 369 -391 809 -459 1216 -188 190 126 384
361 505 610 53 110 127 314 141 390 7 39 8 38 20 -39 14 -89 46 -144 103 -183
98 -66 230 -49 308 41 55 62 58 83 58 406 0 329 -2 336 -70 405 -31 31 -38 46
-50 116 -87 492 -401 908 -850 1124 -276 132 -571 180 -865 140z m341 -146
c565 -57 1056 -474 1193 -1014 40 -157 40 -150 -2 -163 -46 -14 -99 -52 -123
-88 l-17 -27 -7 39 c-43 258 -129 443 -284 606 -220 232 -523 350 -901 350
-378 0 -681 -118 -901 -350 -88 -93 -163 -207 -206 -313 -24 -60 -64 -211 -78
-294 l-7 -40 -13 26 c-14 25 -109 103 -141 116 -20 7 -14 57 21 173 126 419
452 762 865 908 201 70 390 93 601 71z"/>
<path d="M3441 1832 c-26 -53 -142 -292 -256 -530 -114 -238 -210 -431 -212
-429 -2 3 -59 155 -127 338 l-123 334 -29 -3 c-16 -1 -76 -2 -134 -2 -58 0
-118 1 -134 2 l-29 3 -130 -352 c-72 -194 -133 -353 -136 -353 -3 0 -122 243
-264 539 l-258 539 -352 -168 c-194 -92 -383 -183 -422 -202 -217 -110 -421
-329 -523 -564 -67 -154 -66 -141 -70 -581 l-3 -403 2321 0 2321 0 -3 402 c-4
441 -3 428 -70 582 -84 194 -239 380 -417 501 -57 39 -262 140 -784 388 l-117
56 -49 -97z"/>
</g>
</svg>
