<?xml version="1.0" standalone="no"?>
<!DOCTYPE svg PUBLIC "-//W3C//DTD SVG 20010904//EN"
 "http://www.w3.org/TR/2001/REC-SVG-20010904/DTD/svg10.dtd">
<svg version="1.0" xmlns="http://www.w3.org/2000/svg"
 width="24.000000pt" height="24.000000pt" viewBox="0 0 24.000000 24.000000"
 preserveAspectRatio="xMidYMid meet">

<g transform="translate(0.000000,24.000000) scale(0.100000,-0.100000)"
fill="#000000" stroke="none">
<path d="M75 211 c-3 -6 -17 -11 -31 -11 -13 0 -24 -4 -24 -10 0 -5 9 -10 20
-10 11 0 29 -5 39 -12 26 -16 53 -3 49 24 -3 25 -41 37 -53 19z"/>
<path d="M150 190 c0 -5 16 -10 35 -10 19 0 35 5 35 10 0 6 -16 10 -35 10 -19
0 -35 -4 -35 -10z"/>
<path d="M125 141 c-3 -6 -28 -11 -56 -11 -27 0 -49 -4 -49 -10 0 -5 20 -10
45 -10 25 0 54 -5 64 -12 26 -16 53 -3 49 24 -3 25 -41 37 -53 19z"/>
<path d="M200 120 c0 -5 5 -10 10 -10 6 0 10 5 10 10 0 6 -4 10 -10 10 -5 0
-10 -4 -10 -10z"/>
<path d="M36 65 c-20 -15 -20 -15 0 -30 29 -23 59 -15 59 15 0 30 -30 38 -59
15z"/>
<path d="M120 50 c0 -5 23 -10 50 -10 28 0 50 5 50 10 0 6 -22 10 -50 10 -27
0 -50 -4 -50 -10z"/>
</g>
</svg>
